<mxfile host="drawio-plugin" modified="2022-12-31T03:47:51.709Z" agent="5.0 (X11; Linux x86_64) AppleWebKit/537.36 (KHTML, like Gecko) Chrome/104.0.5112.102 Safari/537.36" version="20.5.3" etag="ztWzjcxBQb9tfCThZ0yv" type="embed"><diagram id="ZnbPHMJ6qK9pdDifkubB" name="Page-1"><mxGraphModel dx="1378" dy="756" grid="1" gridSize="10" guides="1" tooltips="1" connect="1" arrows="1" fold="1" page="1" pageScale="1" pageWidth="1169" pageHeight="1654" math="1" shadow="0"><root><mxCell id="0"/><mxCell id="1" parent="0"/><mxCell id="271" value="patient" style="shape=table;startSize=30;container=1;collapsible=1;childLayout=tableLayout;fixedRows=1;rowLines=0;fontStyle=1;align=center;resizeLast=1;fillColor=#0050ef;fontColor=#ffffff;strokeColor=#001DBC;" parent="1" vertex="1"><mxGeometry x="30" y="160" width="360" height="570" as="geometry"/></mxCell><mxCell id="272" value="" style="shape=tableRow;horizontal=0;startSize=0;swimlaneHead=0;swimlaneBody=0;fillColor=none;collapsible=0;dropTarget=0;points=[[0,0.5],[1,0.5]];portConstraint=eastwest;top=0;left=0;right=0;bottom=1;" parent="271" vertex="1"><mxGeometry y="30" width="360" height="30" as="geometry"/></mxCell><mxCell id="273" value="PK" style="shape=partialRectangle;connectable=0;fillColor=#dae8fc;top=0;left=0;bottom=0;right=0;fontStyle=1;overflow=hidden;strokeColor=#6c8ebf;" parent="272" vertex="1"><mxGeometry width="30" height="30" as="geometry"><mxRectangle width="30" height="30" as="alternateBounds"/></mxGeometry></mxCell><mxCell id="274" value="id_patient: INT AUTO_INCREMENT PRIMARY KEY" style="shape=partialRectangle;connectable=0;fillColor=#dae8fc;top=0;left=0;bottom=0;right=0;align=left;spacingLeft=6;fontStyle=5;overflow=hidden;strokeColor=#6c8ebf;" parent="272" vertex="1"><mxGeometry x="30" width="330" height="30" as="geometry"><mxRectangle width="330" height="30" as="alternateBounds"/></mxGeometry></mxCell><mxCell id="275" value="" style="shape=tableRow;horizontal=0;startSize=0;swimlaneHead=0;swimlaneBody=0;fillColor=none;collapsible=0;dropTarget=0;points=[[0,0.5],[1,0.5]];portConstraint=eastwest;top=0;left=0;right=0;bottom=0;" parent="271" vertex="1"><mxGeometry y="60" width="360" height="30" as="geometry"/></mxCell><mxCell id="276" value="" style="shape=partialRectangle;connectable=0;fillColor=none;top=0;left=0;bottom=0;right=0;editable=1;overflow=hidden;" parent="275" vertex="1"><mxGeometry width="30" height="30" as="geometry"><mxRectangle width="30" height="30" as="alternateBounds"/></mxGeometry></mxCell><mxCell id="277" value="username: VARCHAR(200)" style="shape=partialRectangle;connectable=0;fillColor=none;top=0;left=0;bottom=0;right=0;align=left;spacingLeft=6;overflow=hidden;" parent="275" vertex="1"><mxGeometry x="30" width="330" height="30" as="geometry"><mxRectangle width="330" height="30" as="alternateBounds"/></mxGeometry></mxCell><mxCell id="278" value="" style="shape=tableRow;horizontal=0;startSize=0;swimlaneHead=0;swimlaneBody=0;fillColor=none;collapsible=0;dropTarget=0;points=[[0,0.5],[1,0.5]];portConstraint=eastwest;top=0;left=0;right=0;bottom=0;" parent="271" vertex="1"><mxGeometry y="90" width="360" height="30" as="geometry"/></mxCell><mxCell id="279" value="" style="shape=partialRectangle;connectable=0;fillColor=none;top=0;left=0;bottom=0;right=0;editable=1;overflow=hidden;" parent="278" vertex="1"><mxGeometry width="30" height="30" as="geometry"><mxRectangle width="30" height="30" as="alternateBounds"/></mxGeometry></mxCell><mxCell id="280" value="password: VARCHAR(200)" style="shape=partialRectangle;connectable=0;fillColor=none;top=0;left=0;bottom=0;right=0;align=left;spacingLeft=6;overflow=hidden;" parent="278" vertex="1"><mxGeometry x="30" width="330" height="30" as="geometry"><mxRectangle width="330" height="30" as="alternateBounds"/></mxGeometry></mxCell><mxCell id="281" value="" style="shape=tableRow;horizontal=0;startSize=0;swimlaneHead=0;swimlaneBody=0;fillColor=none;collapsible=0;dropTarget=0;points=[[0,0.5],[1,0.5]];portConstraint=eastwest;top=0;left=0;right=0;bottom=0;" parent="271" vertex="1"><mxGeometry y="120" width="360" height="30" as="geometry"/></mxCell><mxCell id="282" value="" style="shape=partialRectangle;connectable=0;fillColor=none;top=0;left=0;bottom=0;right=0;editable=1;overflow=hidden;" parent="281" vertex="1"><mxGeometry width="30" height="30" as="geometry"><mxRectangle width="30" height="30" as="alternateBounds"/></mxGeometry></mxCell><mxCell id="283" value="is_active: BOOLEAN" style="shape=partialRectangle;connectable=0;fillColor=none;top=0;left=0;bottom=0;right=0;align=left;spacingLeft=6;overflow=hidden;" parent="281" vertex="1"><mxGeometry x="30" width="330" height="30" as="geometry"><mxRectangle width="330" height="30" as="alternateBounds"/></mxGeometry></mxCell><mxCell id="297" value="" style="shape=tableRow;horizontal=0;startSize=0;swimlaneHead=0;swimlaneBody=0;fillColor=none;collapsible=0;dropTarget=0;points=[[0,0.5],[1,0.5]];portConstraint=eastwest;top=0;left=0;right=0;bottom=0;" parent="271" vertex="1"><mxGeometry y="150" width="360" height="30" as="geometry"/></mxCell><mxCell id="298" value="" style="shape=partialRectangle;connectable=0;fillColor=none;top=0;left=0;bottom=0;right=0;editable=1;overflow=hidden;" parent="297" vertex="1"><mxGeometry width="30" height="30" as="geometry"><mxRectangle width="30" height="30" as="alternateBounds"/></mxGeometry></mxCell><mxCell id="299" value="first_name: VARCHAR (80)" style="shape=partialRectangle;connectable=0;fillColor=none;top=0;left=0;bottom=0;right=0;align=left;spacingLeft=6;overflow=hidden;" parent="297" vertex="1"><mxGeometry x="30" width="330" height="30" as="geometry"><mxRectangle width="330" height="30" as="alternateBounds"/></mxGeometry></mxCell><mxCell id="300" value="" style="shape=tableRow;horizontal=0;startSize=0;swimlaneHead=0;swimlaneBody=0;fillColor=none;collapsible=0;dropTarget=0;points=[[0,0.5],[1,0.5]];portConstraint=eastwest;top=0;left=0;right=0;bottom=0;" parent="271" vertex="1"><mxGeometry y="180" width="360" height="30" as="geometry"/></mxCell><mxCell id="301" value="" style="shape=partialRectangle;connectable=0;fillColor=none;top=0;left=0;bottom=0;right=0;editable=1;overflow=hidden;" parent="300" vertex="1"><mxGeometry width="30" height="30" as="geometry"><mxRectangle width="30" height="30" as="alternateBounds"/></mxGeometry></mxCell><mxCell id="302" value="last_name: VARCHAR (200)" style="shape=partialRectangle;connectable=0;fillColor=none;top=0;left=0;bottom=0;right=0;align=left;spacingLeft=6;overflow=hidden;" parent="300" vertex="1"><mxGeometry x="30" width="330" height="30" as="geometry"><mxRectangle width="330" height="30" as="alternateBounds"/></mxGeometry></mxCell><mxCell id="303" value="" style="shape=tableRow;horizontal=0;startSize=0;swimlaneHead=0;swimlaneBody=0;fillColor=none;collapsible=0;dropTarget=0;points=[[0,0.5],[1,0.5]];portConstraint=eastwest;top=0;left=0;right=0;bottom=0;" parent="271" vertex="1"><mxGeometry y="210" width="360" height="30" as="geometry"/></mxCell><mxCell id="304" value="" style="shape=partialRectangle;connectable=0;fillColor=none;top=0;left=0;bottom=0;right=0;editable=1;overflow=hidden;" parent="303" vertex="1"><mxGeometry width="30" height="30" as="geometry"><mxRectangle width="30" height="30" as="alternateBounds"/></mxGeometry></mxCell><mxCell id="305" value="birth_date: DATETIME" style="shape=partialRectangle;connectable=0;fillColor=none;top=0;left=0;bottom=0;right=0;align=left;spacingLeft=6;overflow=hidden;" parent="303" vertex="1"><mxGeometry x="30" width="330" height="30" as="geometry"><mxRectangle width="330" height="30" as="alternateBounds"/></mxGeometry></mxCell><mxCell id="306" value="" style="shape=tableRow;horizontal=0;startSize=0;swimlaneHead=0;swimlaneBody=0;fillColor=none;collapsible=0;dropTarget=0;points=[[0,0.5],[1,0.5]];portConstraint=eastwest;top=0;left=0;right=0;bottom=0;" parent="271" vertex="1"><mxGeometry y="240" width="360" height="30" as="geometry"/></mxCell><mxCell id="307" value="" style="shape=partialRectangle;connectable=0;fillColor=none;top=0;left=0;bottom=0;right=0;editable=1;overflow=hidden;" parent="306" vertex="1"><mxGeometry width="30" height="30" as="geometry"><mxRectangle width="30" height="30" as="alternateBounds"/></mxGeometry></mxCell><mxCell id="308" value="genre: char(1)" style="shape=partialRectangle;connectable=0;fillColor=none;top=0;left=0;bottom=0;right=0;align=left;spacingLeft=6;overflow=hidden;" parent="306" vertex="1"><mxGeometry x="30" width="330" height="30" as="geometry"><mxRectangle width="330" height="30" as="alternateBounds"/></mxGeometry></mxCell><mxCell id="309" value="" style="shape=tableRow;horizontal=0;startSize=0;swimlaneHead=0;swimlaneBody=0;fillColor=none;collapsible=0;dropTarget=0;points=[[0,0.5],[1,0.5]];portConstraint=eastwest;top=0;left=0;right=0;bottom=0;" parent="271" vertex="1"><mxGeometry y="270" width="360" height="30" as="geometry"/></mxCell><mxCell id="310" value="" style="shape=partialRectangle;connectable=0;fillColor=none;top=0;left=0;bottom=0;right=0;editable=1;overflow=hidden;" parent="309" vertex="1"><mxGeometry width="30" height="30" as="geometry"><mxRectangle width="30" height="30" as="alternateBounds"/></mxGeometry></mxCell><mxCell id="311" value="email: VARCHAR (200)" style="shape=partialRectangle;connectable=0;fillColor=none;top=0;left=0;bottom=0;right=0;align=left;spacingLeft=6;overflow=hidden;" parent="309" vertex="1"><mxGeometry x="30" width="330" height="30" as="geometry"><mxRectangle width="330" height="30" as="alternateBounds"/></mxGeometry></mxCell><mxCell id="312" value="" style="shape=tableRow;horizontal=0;startSize=0;swimlaneHead=0;swimlaneBody=0;fillColor=none;collapsible=0;dropTarget=0;points=[[0,0.5],[1,0.5]];portConstraint=eastwest;top=0;left=0;right=0;bottom=0;" parent="271" vertex="1"><mxGeometry y="300" width="360" height="30" as="geometry"/></mxCell><mxCell id="313" value="" style="shape=partialRectangle;connectable=0;fillColor=none;top=0;left=0;bottom=0;right=0;editable=1;overflow=hidden;" parent="312" vertex="1"><mxGeometry width="30" height="30" as="geometry"><mxRectangle width="30" height="30" as="alternateBounds"/></mxGeometry></mxCell><mxCell id="314" value="zipcode: VARCHAR (10)" style="shape=partialRectangle;connectable=0;fillColor=none;top=0;left=0;bottom=0;right=0;align=left;spacingLeft=6;overflow=hidden;" parent="312" vertex="1"><mxGeometry x="30" width="330" height="30" as="geometry"><mxRectangle width="330" height="30" as="alternateBounds"/></mxGeometry></mxCell><mxCell id="315" value="" style="shape=tableRow;horizontal=0;startSize=0;swimlaneHead=0;swimlaneBody=0;fillColor=none;collapsible=0;dropTarget=0;points=[[0,0.5],[1,0.5]];portConstraint=eastwest;top=0;left=0;right=0;bottom=0;" parent="271" vertex="1"><mxGeometry y="330" width="360" height="30" as="geometry"/></mxCell><mxCell id="316" value="" style="shape=partialRectangle;connectable=0;fillColor=none;top=0;left=0;bottom=0;right=0;editable=1;overflow=hidden;" parent="315" vertex="1"><mxGeometry width="30" height="30" as="geometry"><mxRectangle width="30" height="30" as="alternateBounds"/></mxGeometry></mxCell><mxCell id="317" value="city: VARCHAR (50)" style="shape=partialRectangle;connectable=0;fillColor=none;top=0;left=0;bottom=0;right=0;align=left;spacingLeft=6;overflow=hidden;" parent="315" vertex="1"><mxGeometry x="30" width="330" height="30" as="geometry"><mxRectangle width="330" height="30" as="alternateBounds"/></mxGeometry></mxCell><mxCell id="318" value="" style="shape=tableRow;horizontal=0;startSize=0;swimlaneHead=0;swimlaneBody=0;fillColor=none;collapsible=0;dropTarget=0;points=[[0,0.5],[1,0.5]];portConstraint=eastwest;top=0;left=0;right=0;bottom=0;" parent="271" vertex="1"><mxGeometry y="360" width="360" height="30" as="geometry"/></mxCell><mxCell id="319" value="" style="shape=partialRectangle;connectable=0;fillColor=none;top=0;left=0;bottom=0;right=0;editable=1;overflow=hidden;" parent="318" vertex="1"><mxGeometry width="30" height="30" as="geometry"><mxRectangle width="30" height="30" as="alternateBounds"/></mxGeometry></mxCell><mxCell id="320" value="street: VARCHAR (140)" style="shape=partialRectangle;connectable=0;fillColor=none;top=0;left=0;bottom=0;right=0;align=left;spacingLeft=6;overflow=hidden;" parent="318" vertex="1"><mxGeometry x="30" width="330" height="30" as="geometry"><mxRectangle width="330" height="30" as="alternateBounds"/></mxGeometry></mxCell><mxCell id="321" value="" style="shape=tableRow;horizontal=0;startSize=0;swimlaneHead=0;swimlaneBody=0;fillColor=none;collapsible=0;dropTarget=0;points=[[0,0.5],[1,0.5]];portConstraint=eastwest;top=0;left=0;right=0;bottom=0;" parent="271" vertex="1"><mxGeometry y="390" width="360" height="30" as="geometry"/></mxCell><mxCell id="322" value="" style="shape=partialRectangle;connectable=0;fillColor=none;top=0;left=0;bottom=0;right=0;editable=1;overflow=hidden;" parent="321" vertex="1"><mxGeometry width="30" height="30" as="geometry"><mxRectangle width="30" height="30" as="alternateBounds"/></mxGeometry></mxCell><mxCell id="323" value="number: VARCHAR (5)" style="shape=partialRectangle;connectable=0;fillColor=none;top=0;left=0;bottom=0;right=0;align=left;spacingLeft=6;overflow=hidden;" parent="321" vertex="1"><mxGeometry x="30" width="330" height="30" as="geometry"><mxRectangle width="330" height="30" as="alternateBounds"/></mxGeometry></mxCell><mxCell id="364" value="" style="shape=tableRow;horizontal=0;startSize=0;swimlaneHead=0;swimlaneBody=0;fillColor=none;collapsible=0;dropTarget=0;points=[[0,0.5],[1,0.5]];portConstraint=eastwest;top=0;left=0;right=0;bottom=0;" parent="271" vertex="1"><mxGeometry y="420" width="360" height="30" as="geometry"/></mxCell><mxCell id="365" value="" style="shape=partialRectangle;connectable=0;fillColor=none;top=0;left=0;bottom=0;right=0;editable=1;overflow=hidden;" parent="364" vertex="1"><mxGeometry width="30" height="30" as="geometry"><mxRectangle width="30" height="30" as="alternateBounds"/></mxGeometry></mxCell><mxCell id="366" value="district: VARCHAR (100)" style="shape=partialRectangle;connectable=0;fillColor=none;top=0;left=0;bottom=0;right=0;align=left;spacingLeft=6;overflow=hidden;" parent="364" vertex="1"><mxGeometry x="30" width="330" height="30" as="geometry"><mxRectangle width="330" height="30" as="alternateBounds"/></mxGeometry></mxCell><mxCell id="367" value="" style="shape=tableRow;horizontal=0;startSize=0;swimlaneHead=0;swimlaneBody=0;fillColor=none;collapsible=0;dropTarget=0;points=[[0,0.5],[1,0.5]];portConstraint=eastwest;top=0;left=0;right=0;bottom=0;" parent="271" vertex="1"><mxGeometry y="450" width="360" height="30" as="geometry"/></mxCell><mxCell id="368" value="" style="shape=partialRectangle;connectable=0;fillColor=none;top=0;left=0;bottom=0;right=0;editable=1;overflow=hidden;" parent="367" vertex="1"><mxGeometry width="30" height="30" as="geometry"><mxRectangle width="30" height="30" as="alternateBounds"/></mxGeometry></mxCell><mxCell id="369" value="practice_activity: BOOLEAN" style="shape=partialRectangle;connectable=0;fillColor=none;top=0;left=0;bottom=0;right=0;align=left;spacingLeft=6;overflow=hidden;" parent="367" vertex="1"><mxGeometry x="30" width="330" height="30" as="geometry"><mxRectangle width="330" height="30" as="alternateBounds"/></mxGeometry></mxCell><mxCell id="370" value="" style="shape=tableRow;horizontal=0;startSize=0;swimlaneHead=0;swimlaneBody=0;fillColor=none;collapsible=0;dropTarget=0;points=[[0,0.5],[1,0.5]];portConstraint=eastwest;top=0;left=0;right=0;bottom=0;" parent="271" vertex="1"><mxGeometry y="480" width="360" height="30" as="geometry"/></mxCell><mxCell id="371" value="" style="shape=partialRectangle;connectable=0;fillColor=none;top=0;left=0;bottom=0;right=0;editable=1;overflow=hidden;" parent="370" vertex="1"><mxGeometry width="30" height="30" as="geometry"><mxRectangle width="30" height="30" as="alternateBounds"/></mxGeometry></mxCell><mxCell id="372" value="what_activity: VARCHAR (100)" style="shape=partialRectangle;connectable=0;fillColor=none;top=0;left=0;bottom=0;right=0;align=left;spacingLeft=6;overflow=hidden;" parent="370" vertex="1"><mxGeometry x="30" width="330" height="30" as="geometry"><mxRectangle width="330" height="30" as="alternateBounds"/></mxGeometry></mxCell><mxCell id="373" value="" style="shape=tableRow;horizontal=0;startSize=0;swimlaneHead=0;swimlaneBody=0;fillColor=none;collapsible=0;dropTarget=0;points=[[0,0.5],[1,0.5]];portConstraint=eastwest;top=0;left=0;right=0;bottom=0;" parent="271" vertex="1"><mxGeometry y="510" width="360" height="30" as="geometry"/></mxCell><mxCell id="374" value="" style="shape=partialRectangle;connectable=0;fillColor=none;top=0;left=0;bottom=0;right=0;editable=1;overflow=hidden;" parent="373" vertex="1"><mxGeometry width="30" height="30" as="geometry"><mxRectangle width="30" height="30" as="alternateBounds"/></mxGeometry></mxCell><mxCell id="375" value="created_at: DATETIME" style="shape=partialRectangle;connectable=0;fillColor=none;top=0;left=0;bottom=0;right=0;align=left;spacingLeft=6;overflow=hidden;" parent="373" vertex="1"><mxGeometry x="30" width="330" height="30" as="geometry"><mxRectangle width="330" height="30" as="alternateBounds"/></mxGeometry></mxCell><mxCell id="376" value="" style="shape=tableRow;horizontal=0;startSize=0;swimlaneHead=0;swimlaneBody=0;fillColor=none;collapsible=0;dropTarget=0;points=[[0,0.5],[1,0.5]];portConstraint=eastwest;top=0;left=0;right=0;bottom=0;" parent="271" vertex="1"><mxGeometry y="540" width="360" height="30" as="geometry"/></mxCell><mxCell id="377" value="" style="shape=partialRectangle;connectable=0;fillColor=none;top=0;left=0;bottom=0;right=0;editable=1;overflow=hidden;" parent="376" vertex="1"><mxGeometry width="30" height="30" as="geometry"><mxRectangle width="30" height="30" as="alternateBounds"/></mxGeometry></mxCell><mxCell id="378" value="updated_at: DATETIME" style="shape=partialRectangle;connectable=0;fillColor=none;top=0;left=0;bottom=0;right=0;align=left;spacingLeft=6;overflow=hidden;" parent="376" vertex="1"><mxGeometry x="30" width="330" height="30" as="geometry"><mxRectangle width="330" height="30" as="alternateBounds"/></mxGeometry></mxCell><mxCell id="392" value="pathology" style="shape=table;startSize=30;container=1;collapsible=1;childLayout=tableLayout;fixedRows=1;rowLines=0;fontStyle=1;align=center;resizeLast=1;fillColor=#e51400;fontColor=#ffffff;strokeColor=#B20000;" parent="1" vertex="1"><mxGeometry x="510" y="160" width="390" height="1060" as="geometry"/></mxCell><mxCell id="393" value="" style="shape=partialRectangle;collapsible=0;dropTarget=0;pointerEvents=0;fillColor=none;top=0;left=0;bottom=1;right=0;points=[[0,0.5],[1,0.5]];portConstraint=eastwest;" parent="392" vertex="1"><mxGeometry y="30" width="390" height="30" as="geometry"/></mxCell><mxCell id="394" value="PK" style="shape=partialRectangle;connectable=0;fillColor=#f8cecc;top=0;left=0;bottom=0;right=0;fontStyle=1;overflow=hidden;strokeColor=#b85450;" parent="393" vertex="1"><mxGeometry width="30" height="30" as="geometry"><mxRectangle width="30" height="30" as="alternateBounds"/></mxGeometry></mxCell><mxCell id="395" value="id_pathology: INT AUTO_INCREMENT PRIMARY KEY" style="shape=partialRectangle;connectable=0;fillColor=#f8cecc;top=0;left=0;bottom=0;right=0;align=left;spacingLeft=6;fontStyle=5;overflow=hidden;strokeColor=#b85450;" parent="393" vertex="1"><mxGeometry x="30" width="360" height="30" as="geometry"><mxRectangle width="360" height="30" as="alternateBounds"/></mxGeometry></mxCell><mxCell id="396" value="" style="shape=partialRectangle;collapsible=0;dropTarget=0;pointerEvents=0;fillColor=none;top=0;left=0;bottom=0;right=0;points=[[0,0.5],[1,0.5]];portConstraint=eastwest;" parent="392" vertex="1"><mxGeometry y="60" width="390" height="30" as="geometry"/></mxCell><mxCell id="397" value="FK" style="shape=partialRectangle;connectable=0;fillColor=#0050ef;top=0;left=0;bottom=0;right=0;editable=1;overflow=hidden;strokeColor=#001DBC;fontColor=#ffffff;" parent="396" vertex="1"><mxGeometry width="30" height="30" as="geometry"><mxRectangle width="30" height="30" as="alternateBounds"/></mxGeometry></mxCell><mxCell id="398" value="id_patient: INT" style="shape=partialRectangle;connectable=0;fillColor=#0050ef;top=0;left=0;bottom=0;right=0;align=left;spacingLeft=6;overflow=hidden;strokeColor=#001DBC;fontColor=#ffffff;" parent="396" vertex="1"><mxGeometry x="30" width="360" height="30" as="geometry"><mxRectangle width="360" height="30" as="alternateBounds"/></mxGeometry></mxCell><mxCell id="399" value="" style="shape=partialRectangle;collapsible=0;dropTarget=0;pointerEvents=0;fillColor=none;top=0;left=0;bottom=0;right=0;points=[[0,0.5],[1,0.5]];portConstraint=eastwest;" parent="392" vertex="1"><mxGeometry y="90" width="390" height="30" as="geometry"/></mxCell><mxCell id="400" value="" style="shape=partialRectangle;connectable=0;fillColor=none;top=0;left=0;bottom=0;right=0;editable=1;overflow=hidden;" parent="399" vertex="1"><mxGeometry width="30" height="30" as="geometry"><mxRectangle width="30" height="30" as="alternateBounds"/></mxGeometry></mxCell><mxCell id="401" value="has_diabetes: BOOLEAN" style="shape=partialRectangle;connectable=0;fillColor=none;top=0;left=0;bottom=0;right=0;align=left;spacingLeft=6;overflow=hidden;" parent="399" vertex="1"><mxGeometry x="30" width="360" height="30" as="geometry"><mxRectangle width="360" height="30" as="alternateBounds"/></mxGeometry></mxCell><mxCell id="402" value="" style="shape=partialRectangle;collapsible=0;dropTarget=0;pointerEvents=0;fillColor=none;top=0;left=0;bottom=0;right=0;points=[[0,0.5],[1,0.5]];portConstraint=eastwest;" parent="392" vertex="1"><mxGeometry y="120" width="390" height="30" as="geometry"/></mxCell><mxCell id="403" value="" style="shape=partialRectangle;connectable=0;fillColor=none;top=0;left=0;bottom=0;right=0;editable=1;overflow=hidden;" parent="402" vertex="1"><mxGeometry width="30" height="30" as="geometry"><mxRectangle width="30" height="30" as="alternateBounds"/></mxGeometry></mxCell><mxCell id="404" value="observations_diabetes: TEXT" style="shape=partialRectangle;connectable=0;fillColor=none;top=0;left=0;bottom=0;right=0;align=left;spacingLeft=6;overflow=hidden;" parent="402" vertex="1"><mxGeometry x="30" width="360" height="30" as="geometry"><mxRectangle width="360" height="30" as="alternateBounds"/></mxGeometry></mxCell><mxCell id="405" value="" style="shape=partialRectangle;collapsible=0;dropTarget=0;pointerEvents=0;fillColor=none;top=0;left=0;bottom=0;right=0;points=[[0,0.5],[1,0.5]];portConstraint=eastwest;" parent="392" vertex="1"><mxGeometry y="150" width="390" height="30" as="geometry"/></mxCell><mxCell id="406" value="" style="shape=partialRectangle;connectable=0;fillColor=none;top=0;left=0;bottom=0;right=0;editable=1;overflow=hidden;" parent="405" vertex="1"><mxGeometry width="30" height="30" as="geometry"><mxRectangle width="30" height="30" as="alternateBounds"/></mxGeometry></mxCell><mxCell id="407" value="have_hypertension: BOOLEAN" style="shape=partialRectangle;connectable=0;fillColor=none;top=0;left=0;bottom=0;right=0;align=left;spacingLeft=6;overflow=hidden;" parent="405" vertex="1"><mxGeometry x="30" width="360" height="30" as="geometry"><mxRectangle width="360" height="30" as="alternateBounds"/></mxGeometry></mxCell><mxCell id="408" value="" style="shape=partialRectangle;collapsible=0;dropTarget=0;pointerEvents=0;fillColor=none;top=0;left=0;bottom=0;right=0;points=[[0,0.5],[1,0.5]];portConstraint=eastwest;" parent="392" vertex="1"><mxGeometry y="180" width="390" height="30" as="geometry"/></mxCell><mxCell id="409" value="" style="shape=partialRectangle;connectable=0;fillColor=none;top=0;left=0;bottom=0;right=0;editable=1;overflow=hidden;" parent="408" vertex="1"><mxGeometry width="30" height="30" as="geometry"><mxRectangle width="30" height="30" as="alternateBounds"/></mxGeometry></mxCell><mxCell id="410" value="observations_hypertension: TEXT" style="shape=partialRectangle;connectable=0;fillColor=none;top=0;left=0;bottom=0;right=0;align=left;spacingLeft=6;overflow=hidden;" parent="408" vertex="1"><mxGeometry x="30" width="360" height="30" as="geometry"><mxRectangle width="360" height="30" as="alternateBounds"/></mxGeometry></mxCell><mxCell id="411" value="" style="shape=partialRectangle;collapsible=0;dropTarget=0;pointerEvents=0;fillColor=none;top=0;left=0;bottom=0;right=0;points=[[0,0.5],[1,0.5]];portConstraint=eastwest;" parent="392" vertex="1"><mxGeometry y="210" width="390" height="30" as="geometry"/></mxCell><mxCell id="412" value="" style="shape=partialRectangle;connectable=0;fillColor=none;top=0;left=0;bottom=0;right=0;editable=1;overflow=hidden;" parent="411" vertex="1"><mxGeometry width="30" height="30" as="geometry"><mxRectangle width="30" height="30" as="alternateBounds"/></mxGeometry></mxCell><mxCell id="413" value="take_medicines: BOOLEAN" style="shape=partialRectangle;connectable=0;fillColor=none;top=0;left=0;bottom=0;right=0;align=left;spacingLeft=6;overflow=hidden;" parent="411" vertex="1"><mxGeometry x="30" width="360" height="30" as="geometry"><mxRectangle width="360" height="30" as="alternateBounds"/></mxGeometry></mxCell><mxCell id="414" value="" style="shape=partialRectangle;collapsible=0;dropTarget=0;pointerEvents=0;fillColor=none;top=0;left=0;bottom=0;right=0;points=[[0,0.5],[1,0.5]];portConstraint=eastwest;" parent="392" vertex="1"><mxGeometry y="240" width="390" height="30" as="geometry"/></mxCell><mxCell id="415" value="" style="shape=partialRectangle;connectable=0;fillColor=none;top=0;left=0;bottom=0;right=0;editable=1;overflow=hidden;" parent="414" vertex="1"><mxGeometry width="30" height="30" as="geometry"><mxRectangle width="30" height="30" as="alternateBounds"/></mxGeometry></mxCell><mxCell id="416" value="observations_medicines: TEXT" style="shape=partialRectangle;connectable=0;fillColor=none;top=0;left=0;bottom=0;right=0;align=left;spacingLeft=6;overflow=hidden;" parent="414" vertex="1"><mxGeometry x="30" width="360" height="30" as="geometry"><mxRectangle width="360" height="30" as="alternateBounds"/></mxGeometry></mxCell><mxCell id="417" value="" style="shape=partialRectangle;collapsible=0;dropTarget=0;pointerEvents=0;fillColor=none;top=0;left=0;bottom=0;right=0;points=[[0,0.5],[1,0.5]];portConstraint=eastwest;" parent="392" vertex="1"><mxGeometry y="270" width="390" height="30" as="geometry"/></mxCell><mxCell id="418" value="" style="shape=partialRectangle;connectable=0;fillColor=none;top=0;left=0;bottom=0;right=0;editable=1;overflow=hidden;" parent="417" vertex="1"><mxGeometry width="30" height="30" as="geometry"><mxRectangle width="30" height="30" as="alternateBounds"/></mxGeometry></mxCell><mxCell id="419" value="allergic_to_medicine: BOOLEAN" style="shape=partialRectangle;connectable=0;fillColor=none;top=0;left=0;bottom=0;right=0;align=left;spacingLeft=6;overflow=hidden;" parent="417" vertex="1"><mxGeometry x="30" width="360" height="30" as="geometry"><mxRectangle width="360" height="30" as="alternateBounds"/></mxGeometry></mxCell><mxCell id="420" value="" style="shape=partialRectangle;collapsible=0;dropTarget=0;pointerEvents=0;fillColor=none;top=0;left=0;bottom=0;right=0;points=[[0,0.5],[1,0.5]];portConstraint=eastwest;" parent="392" vertex="1"><mxGeometry y="300" width="390" height="30" as="geometry"/></mxCell><mxCell id="421" value="" style="shape=partialRectangle;connectable=0;fillColor=none;top=0;left=0;bottom=0;right=0;editable=1;overflow=hidden;" parent="420" vertex="1"><mxGeometry width="30" height="30" as="geometry"><mxRectangle width="30" height="30" as="alternateBounds"/></mxGeometry></mxCell><mxCell id="422" value="which_medicine: VARCHAR(254)" style="shape=partialRectangle;connectable=0;fillColor=none;top=0;left=0;bottom=0;right=0;align=left;spacingLeft=6;overflow=hidden;" parent="420" vertex="1"><mxGeometry x="30" width="360" height="30" as="geometry"><mxRectangle width="360" height="30" as="alternateBounds"/></mxGeometry></mxCell><mxCell id="423" value="" style="shape=partialRectangle;collapsible=0;dropTarget=0;pointerEvents=0;fillColor=none;top=0;left=0;bottom=0;right=0;points=[[0,0.5],[1,0.5]];portConstraint=eastwest;" parent="392" vertex="1"><mxGeometry y="330" width="390" height="30" as="geometry"/></mxCell><mxCell id="424" value="" style="shape=partialRectangle;connectable=0;fillColor=none;top=0;left=0;bottom=0;right=0;editable=1;overflow=hidden;" parent="423" vertex="1"><mxGeometry width="30" height="30" as="geometry"><mxRectangle width="30" height="30" as="alternateBounds"/></mxGeometry></mxCell><mxCell id="425" value="have_cancer: BOOLEAN" style="shape=partialRectangle;connectable=0;fillColor=none;top=0;left=0;bottom=0;right=0;align=left;spacingLeft=6;overflow=hidden;" parent="423" vertex="1"><mxGeometry x="30" width="360" height="30" as="geometry"><mxRectangle width="360" height="30" as="alternateBounds"/></mxGeometry></mxCell><mxCell id="426" value="" style="shape=partialRectangle;collapsible=0;dropTarget=0;pointerEvents=0;fillColor=none;top=0;left=0;bottom=0;right=0;points=[[0,0.5],[1,0.5]];portConstraint=eastwest;" parent="392" vertex="1"><mxGeometry y="360" width="390" height="30" as="geometry"/></mxCell><mxCell id="427" value="" style="shape=partialRectangle;connectable=0;fillColor=none;top=0;left=0;bottom=0;right=0;editable=1;overflow=hidden;" parent="426" vertex="1"><mxGeometry width="30" height="30" as="geometry"><mxRectangle width="30" height="30" as="alternateBounds"/></mxGeometry></mxCell><mxCell id="428" value="which_type_cancer: VARCHAR(254)" style="shape=partialRectangle;connectable=0;fillColor=none;top=0;left=0;bottom=0;right=0;align=left;spacingLeft=6;overflow=hidden;" parent="426" vertex="1"><mxGeometry x="30" width="360" height="30" as="geometry"><mxRectangle width="360" height="30" as="alternateBounds"/></mxGeometry></mxCell><mxCell id="429" value="" style="shape=partialRectangle;collapsible=0;dropTarget=0;pointerEvents=0;fillColor=none;top=0;left=0;bottom=0;right=0;points=[[0,0.5],[1,0.5]];portConstraint=eastwest;" parent="392" vertex="1"><mxGeometry y="390" width="390" height="30" as="geometry"/></mxCell><mxCell id="430" value="" style="shape=partialRectangle;connectable=0;fillColor=none;top=0;left=0;bottom=0;right=0;editable=1;overflow=hidden;" parent="429" vertex="1"><mxGeometry width="30" height="30" as="geometry"><mxRectangle width="30" height="30" as="alternateBounds"/></mxGeometry></mxCell><mxCell id="431" value="has_pacemaker: BOOLEAN" style="shape=partialRectangle;connectable=0;fillColor=none;top=0;left=0;bottom=0;right=0;align=left;spacingLeft=6;overflow=hidden;" parent="429" vertex="1"><mxGeometry x="30" width="360" height="30" as="geometry"><mxRectangle width="360" height="30" as="alternateBounds"/></mxGeometry></mxCell><mxCell id="432" value="" style="shape=partialRectangle;collapsible=0;dropTarget=0;pointerEvents=0;fillColor=none;top=0;left=0;bottom=0;right=0;points=[[0,0.5],[1,0.5]];portConstraint=eastwest;" parent="392" vertex="1"><mxGeometry y="420" width="390" height="30" as="geometry"/></mxCell><mxCell id="433" value="" style="shape=partialRectangle;connectable=0;fillColor=none;top=0;left=0;bottom=0;right=0;editable=1;overflow=hidden;" parent="432" vertex="1"><mxGeometry width="30" height="30" as="geometry"><mxRectangle width="30" height="30" as="alternateBounds"/></mxGeometry></mxCell><mxCell id="434" value="has_pin: BOOLEAN" style="shape=partialRectangle;connectable=0;fillColor=none;top=0;left=0;bottom=0;right=0;align=left;spacingLeft=6;overflow=hidden;" parent="432" vertex="1"><mxGeometry x="30" width="360" height="30" as="geometry"><mxRectangle width="360" height="30" as="alternateBounds"/></mxGeometry></mxCell><mxCell id="435" value="" style="shape=partialRectangle;collapsible=0;dropTarget=0;pointerEvents=0;fillColor=none;top=0;left=0;bottom=0;right=0;points=[[0,0.5],[1,0.5]];portConstraint=eastwest;" parent="392" vertex="1"><mxGeometry y="450" width="390" height="30" as="geometry"/></mxCell><mxCell id="436" value="" style="shape=partialRectangle;connectable=0;fillColor=none;top=0;left=0;bottom=0;right=0;editable=1;overflow=hidden;" parent="435" vertex="1"><mxGeometry width="30" height="30" as="geometry"><mxRectangle width="30" height="30" as="alternateBounds"/></mxGeometry></mxCell><mxCell id="437" value="is_cadiaco: BOOLEAN" style="shape=partialRectangle;connectable=0;fillColor=none;top=0;left=0;bottom=0;right=0;align=left;spacingLeft=6;overflow=hidden;" parent="435" vertex="1"><mxGeometry x="30" width="360" height="30" as="geometry"><mxRectangle width="360" height="30" as="alternateBounds"/></mxGeometry></mxCell><mxCell id="438" value="" style="shape=partialRectangle;collapsible=0;dropTarget=0;pointerEvents=0;fillColor=none;top=0;left=0;bottom=0;right=0;points=[[0,0.5],[1,0.5]];portConstraint=eastwest;" parent="392" vertex="1"><mxGeometry y="480" width="390" height="30" as="geometry"/></mxCell><mxCell id="439" value="" style="shape=partialRectangle;connectable=0;fillColor=none;top=0;left=0;bottom=0;right=0;editable=1;overflow=hidden;" parent="438" vertex="1"><mxGeometry width="30" height="30" as="geometry"><mxRectangle width="30" height="30" as="alternateBounds"/></mxGeometry></mxCell><mxCell id="440" value="have_foot_surgery: BOOLEAN" style="shape=partialRectangle;connectable=0;fillColor=none;top=0;left=0;bottom=0;right=0;align=left;spacingLeft=6;overflow=hidden;" parent="438" vertex="1"><mxGeometry x="30" width="360" height="30" as="geometry"><mxRectangle width="360" height="30" as="alternateBounds"/></mxGeometry></mxCell><mxCell id="441" value="" style="shape=partialRectangle;collapsible=0;dropTarget=0;pointerEvents=0;fillColor=none;top=0;left=0;bottom=0;right=0;points=[[0,0.5],[1,0.5]];portConstraint=eastwest;" parent="392" vertex="1"><mxGeometry y="510" width="390" height="30" as="geometry"/></mxCell><mxCell id="442" value="" style="shape=partialRectangle;connectable=0;fillColor=none;top=0;left=0;bottom=0;right=0;editable=1;overflow=hidden;" parent="441" vertex="1"><mxGeometry width="30" height="30" as="geometry"><mxRectangle width="30" height="30" as="alternateBounds"/></mxGeometry></mxCell><mxCell id="443" value="which_foot: VARCHAR(200)" style="shape=partialRectangle;connectable=0;fillColor=none;top=0;left=0;bottom=0;right=0;align=left;spacingLeft=6;overflow=hidden;" parent="441" vertex="1"><mxGeometry x="30" width="360" height="30" as="geometry"><mxRectangle width="360" height="30" as="alternateBounds"/></mxGeometry></mxCell><mxCell id="444" value="" style="shape=partialRectangle;collapsible=0;dropTarget=0;pointerEvents=0;fillColor=none;top=0;left=0;bottom=0;right=0;points=[[0,0.5],[1,0.5]];portConstraint=eastwest;" parent="392" vertex="1"><mxGeometry y="540" width="390" height="30" as="geometry"/></mxCell><mxCell id="445" value="" style="shape=partialRectangle;connectable=0;fillColor=none;top=0;left=0;bottom=0;right=0;editable=1;overflow=hidden;" parent="444" vertex="1"><mxGeometry width="30" height="30" as="geometry"><mxRectangle width="30" height="30" as="alternateBounds"/></mxGeometry></mxCell><mxCell id="446" value="about_the_foot_of_the_patient_has_callus: BOOLEAN" style="shape=partialRectangle;connectable=0;fillColor=none;top=0;left=0;bottom=0;right=0;align=left;spacingLeft=6;overflow=hidden;" parent="444" vertex="1"><mxGeometry x="30" width="360" height="30" as="geometry"><mxRectangle width="360" height="30" as="alternateBounds"/></mxGeometry></mxCell><mxCell id="447" value="" style="shape=partialRectangle;collapsible=0;dropTarget=0;pointerEvents=0;fillColor=none;top=0;left=0;bottom=0;right=0;points=[[0,0.5],[1,0.5]];portConstraint=eastwest;" parent="392" vertex="1"><mxGeometry y="570" width="390" height="30" as="geometry"/></mxCell><mxCell id="448" value="" style="shape=partialRectangle;connectable=0;fillColor=none;top=0;left=0;bottom=0;right=0;editable=1;overflow=hidden;" parent="447" vertex="1"><mxGeometry width="30" height="30" as="geometry"><mxRectangle width="30" height="30" as="alternateBounds"/></mxGeometry></mxCell><mxCell id="449" value="about_the_foot_of_the_patient_has_callosity: BOOLEAN" style="shape=partialRectangle;connectable=0;fillColor=none;top=0;left=0;bottom=0;right=0;align=left;spacingLeft=6;overflow=hidden;" parent="447" vertex="1"><mxGeometry x="30" width="360" height="30" as="geometry"><mxRectangle width="360" height="30" as="alternateBounds"/></mxGeometry></mxCell><mxCell id="450" value="" style="shape=partialRectangle;collapsible=0;dropTarget=0;pointerEvents=0;fillColor=none;top=0;left=0;bottom=0;right=0;points=[[0,0.5],[1,0.5]];portConstraint=eastwest;" parent="392" vertex="1"><mxGeometry y="600" width="390" height="30" as="geometry"/></mxCell><mxCell id="451" value="" style="shape=partialRectangle;connectable=0;fillColor=none;top=0;left=0;bottom=0;right=0;editable=1;overflow=hidden;" parent="450" vertex="1"><mxGeometry width="30" height="30" as="geometry"><mxRectangle width="30" height="30" as="alternateBounds"/></mxGeometry></mxCell><mxCell id="452" value="about_the_foot_of_the_patient_has_fissure: BOOLEAN" style="shape=partialRectangle;connectable=0;fillColor=none;top=0;left=0;bottom=0;right=0;align=left;spacingLeft=6;overflow=hidden;" parent="450" vertex="1"><mxGeometry x="30" width="360" height="30" as="geometry"><mxRectangle width="360" height="30" as="alternateBounds"/></mxGeometry></mxCell><mxCell id="453" value="" style="shape=partialRectangle;collapsible=0;dropTarget=0;pointerEvents=0;fillColor=none;top=0;left=0;bottom=0;right=0;points=[[0,0.5],[1,0.5]];portConstraint=eastwest;" parent="392" vertex="1"><mxGeometry y="630" width="390" height="30" as="geometry"/></mxCell><mxCell id="454" value="" style="shape=partialRectangle;connectable=0;fillColor=none;top=0;left=0;bottom=0;right=0;editable=1;overflow=hidden;" parent="453" vertex="1"><mxGeometry width="30" height="30" as="geometry"><mxRectangle width="30" height="30" as="alternateBounds"/></mxGeometry></mxCell><mxCell id="455" value="about_the_foot_of_the_patient_has_dryness: BOOLEAN" style="shape=partialRectangle;connectable=0;fillColor=none;top=0;left=0;bottom=0;right=0;align=left;spacingLeft=6;overflow=hidden;" parent="453" vertex="1"><mxGeometry x="30" width="360" height="30" as="geometry"><mxRectangle width="360" height="30" as="alternateBounds"/></mxGeometry></mxCell><mxCell id="456" value="" style="shape=partialRectangle;collapsible=0;dropTarget=0;pointerEvents=0;fillColor=none;top=0;left=0;bottom=0;right=0;points=[[0,0.5],[1,0.5]];portConstraint=eastwest;" parent="392" vertex="1"><mxGeometry y="660" width="390" height="30" as="geometry"/></mxCell><mxCell id="457" value="" style="shape=partialRectangle;connectable=0;fillColor=none;top=0;left=0;bottom=0;right=0;editable=1;overflow=hidden;" parent="456" vertex="1"><mxGeometry width="30" height="30" as="geometry"><mxRectangle width="30" height="30" as="alternateBounds"/></mxGeometry></mxCell><mxCell id="458" value="about_the_foot_of_the_patient_has_psoriasis: BOOLEAN" style="shape=partialRectangle;connectable=0;fillColor=none;top=0;left=0;bottom=0;right=0;align=left;spacingLeft=6;overflow=hidden;" parent="456" vertex="1"><mxGeometry x="30" width="360" height="30" as="geometry"><mxRectangle width="360" height="30" as="alternateBounds"/></mxGeometry></mxCell><mxCell id="459" value="" style="shape=partialRectangle;collapsible=0;dropTarget=0;pointerEvents=0;fillColor=none;top=0;left=0;bottom=0;right=0;points=[[0,0.5],[1,0.5]];portConstraint=eastwest;" parent="392" vertex="1"><mxGeometry y="690" width="390" height="30" as="geometry"/></mxCell><mxCell id="460" value="" style="shape=partialRectangle;connectable=0;fillColor=none;top=0;left=0;bottom=0;right=0;editable=1;overflow=hidden;" parent="459" vertex="1"><mxGeometry width="30" height="30" as="geometry"><mxRectangle width="30" height="30" as="alternateBounds"/></mxGeometry></mxCell><mxCell id="461" value="about_the_foot_of_the_patient_has_pantar_wart: BOOLEAN" style="shape=partialRectangle;connectable=0;fillColor=none;top=0;left=0;bottom=0;right=0;align=left;spacingLeft=6;overflow=hidden;" parent="459" vertex="1"><mxGeometry x="30" width="360" height="30" as="geometry"><mxRectangle width="360" height="30" as="alternateBounds"/></mxGeometry></mxCell><mxCell id="462" value="" style="shape=partialRectangle;collapsible=0;dropTarget=0;pointerEvents=0;fillColor=none;top=0;left=0;bottom=0;right=0;points=[[0,0.5],[1,0.5]];portConstraint=eastwest;" parent="392" vertex="1"><mxGeometry y="720" width="390" height="30" as="geometry"/></mxCell><mxCell id="463" value="" style="shape=partialRectangle;connectable=0;fillColor=none;top=0;left=0;bottom=0;right=0;editable=1;overflow=hidden;" parent="462" vertex="1"><mxGeometry width="30" height="30" as="geometry"><mxRectangle width="30" height="30" as="alternateBounds"/></mxGeometry></mxCell><mxCell id="464" value="about_the_nail_of_the_patient_has_onychocryptosis: BOOLEAN" style="shape=partialRectangle;connectable=0;fillColor=none;top=0;left=0;bottom=0;right=0;align=left;spacingLeft=6;overflow=hidden;" parent="462" vertex="1"><mxGeometry x="30" width="360" height="30" as="geometry"><mxRectangle width="360" height="30" as="alternateBounds"/></mxGeometry></mxCell><mxCell id="465" value="" style="shape=partialRectangle;collapsible=0;dropTarget=0;pointerEvents=0;fillColor=none;top=0;left=0;bottom=0;right=0;points=[[0,0.5],[1,0.5]];portConstraint=eastwest;" parent="392" vertex="1"><mxGeometry y="750" width="390" height="30" as="geometry"/></mxCell><mxCell id="466" value="" style="shape=partialRectangle;connectable=0;fillColor=none;top=0;left=0;bottom=0;right=0;editable=1;overflow=hidden;" parent="465" vertex="1"><mxGeometry width="30" height="30" as="geometry"><mxRectangle width="30" height="30" as="alternateBounds"/></mxGeometry></mxCell><mxCell id="467" value="about_the_nail_of_the_patient_has_onycholysis: BOOLEAN" style="shape=partialRectangle;connectable=0;fillColor=none;top=0;left=0;bottom=0;right=0;align=left;spacingLeft=6;overflow=hidden;" parent="465" vertex="1"><mxGeometry x="30" width="360" height="30" as="geometry"><mxRectangle width="360" height="30" as="alternateBounds"/></mxGeometry></mxCell><mxCell id="468" value="" style="shape=partialRectangle;collapsible=0;dropTarget=0;pointerEvents=0;fillColor=none;top=0;left=0;bottom=0;right=0;points=[[0,0.5],[1,0.5]];portConstraint=eastwest;" parent="392" vertex="1"><mxGeometry y="780" width="390" height="30" as="geometry"/></mxCell><mxCell id="469" value="" style="shape=partialRectangle;connectable=0;fillColor=none;top=0;left=0;bottom=0;right=0;editable=1;overflow=hidden;" parent="468" vertex="1"><mxGeometry width="30" height="30" as="geometry"><mxRectangle width="30" height="30" as="alternateBounds"/></mxGeometry></mxCell><mxCell id="470" value="about_the_nail_of_the_patient_has_onychomycosis: BOOLEAN" style="shape=partialRectangle;connectable=0;fillColor=none;top=0;left=0;bottom=0;right=0;align=left;spacingLeft=6;overflow=hidden;" parent="468" vertex="1"><mxGeometry x="30" width="360" height="30" as="geometry"><mxRectangle width="360" height="30" as="alternateBounds"/></mxGeometry></mxCell><mxCell id="471" value="" style="shape=partialRectangle;collapsible=0;dropTarget=0;pointerEvents=0;fillColor=none;top=0;left=0;bottom=0;right=0;points=[[0,0.5],[1,0.5]];portConstraint=eastwest;" parent="392" vertex="1"><mxGeometry y="810" width="390" height="30" as="geometry"/></mxCell><mxCell id="472" value="" style="shape=partialRectangle;connectable=0;fillColor=none;top=0;left=0;bottom=0;right=0;editable=1;overflow=hidden;" parent="471" vertex="1"><mxGeometry width="30" height="30" as="geometry"><mxRectangle width="30" height="30" as="alternateBounds"/></mxGeometry></mxCell><mxCell id="473" value="about_the_nail_of_the_patient_has_onychophoresis: BOOLEAN" style="shape=partialRectangle;connectable=0;fillColor=none;top=0;left=0;bottom=0;right=0;align=left;spacingLeft=6;overflow=hidden;" parent="471" vertex="1"><mxGeometry x="30" width="360" height="30" as="geometry"><mxRectangle width="360" height="30" as="alternateBounds"/></mxGeometry></mxCell><mxCell id="474" value="" style="shape=partialRectangle;collapsible=0;dropTarget=0;pointerEvents=0;fillColor=none;top=0;left=0;bottom=0;right=0;points=[[0,0.5],[1,0.5]];portConstraint=eastwest;" parent="392" vertex="1"><mxGeometry y="840" width="390" height="30" as="geometry"/></mxCell><mxCell id="475" value="" style="shape=partialRectangle;connectable=0;fillColor=none;top=0;left=0;bottom=0;right=0;editable=1;overflow=hidden;" parent="474" vertex="1"><mxGeometry width="30" height="30" as="geometry"><mxRectangle width="30" height="30" as="alternateBounds"/></mxGeometry></mxCell><mxCell id="476" value="sensitive_to_pain: VARCHAR(30)" style="shape=partialRectangle;connectable=0;fillColor=none;top=0;left=0;bottom=0;right=0;align=left;spacingLeft=6;overflow=hidden;" parent="474" vertex="1"><mxGeometry x="30" width="360" height="30" as="geometry"><mxRectangle width="360" height="30" as="alternateBounds"/></mxGeometry></mxCell><mxCell id="477" value="" style="shape=partialRectangle;collapsible=0;dropTarget=0;pointerEvents=0;fillColor=none;top=0;left=0;bottom=0;right=0;points=[[0,0.5],[1,0.5]];portConstraint=eastwest;" parent="392" vertex="1"><mxGeometry y="870" width="390" height="30" as="geometry"/></mxCell><mxCell id="478" value="" style="shape=partialRectangle;connectable=0;fillColor=none;top=0;left=0;bottom=0;right=0;editable=1;overflow=hidden;" parent="477" vertex="1"><mxGeometry width="30" height="30" as="geometry"><mxRectangle width="30" height="30" as="alternateBounds"/></mxGeometry></mxCell><mxCell id="479" value="type_of_sock: VARCHAR(150)" style="shape=partialRectangle;connectable=0;fillColor=none;top=0;left=0;bottom=0;right=0;align=left;spacingLeft=6;overflow=hidden;" parent="477" vertex="1"><mxGeometry x="30" width="360" height="30" as="geometry"><mxRectangle width="360" height="30" as="alternateBounds"/></mxGeometry></mxCell><mxCell id="480" value="" style="shape=partialRectangle;collapsible=0;dropTarget=0;pointerEvents=0;fillColor=none;top=0;left=0;bottom=0;right=0;points=[[0,0.5],[1,0.5]];portConstraint=eastwest;" parent="392" vertex="1"><mxGeometry y="900" width="390" height="30" as="geometry"/></mxCell><mxCell id="481" value="" style="shape=partialRectangle;connectable=0;fillColor=none;top=0;left=0;bottom=0;right=0;editable=1;overflow=hidden;" parent="480" vertex="1"><mxGeometry width="30" height="30" as="geometry"><mxRectangle width="30" height="30" as="alternateBounds"/></mxGeometry></mxCell><mxCell id="482" value="type_of_shoe: VARCHAR(150)" style="shape=partialRectangle;connectable=0;fillColor=none;top=0;left=0;bottom=0;right=0;align=left;spacingLeft=6;overflow=hidden;" parent="480" vertex="1"><mxGeometry x="30" width="360" height="30" as="geometry"><mxRectangle width="360" height="30" as="alternateBounds"/></mxGeometry></mxCell><mxCell id="483" value="" style="shape=partialRectangle;collapsible=0;dropTarget=0;pointerEvents=0;fillColor=none;top=0;left=0;bottom=0;right=0;points=[[0,0.5],[1,0.5]];portConstraint=eastwest;" parent="392" vertex="1"><mxGeometry y="930" width="390" height="30" as="geometry"/></mxCell><mxCell id="484" value="" style="shape=partialRectangle;connectable=0;fillColor=none;top=0;left=0;bottom=0;right=0;editable=1;overflow=hidden;" parent="483" vertex="1"><mxGeometry width="30" height="30" as="geometry"><mxRectangle width="30" height="30" as="alternateBounds"/></mxGeometry></mxCell><mxCell id="485" value="shoe_number: VARCHAR(3)" style="shape=partialRectangle;connectable=0;fillColor=none;top=0;left=0;bottom=0;right=0;align=left;spacingLeft=6;overflow=hidden;" parent="483" vertex="1"><mxGeometry x="30" width="360" height="30" as="geometry"><mxRectangle width="360" height="30" as="alternateBounds"/></mxGeometry></mxCell><mxCell id="486" value="" style="shape=partialRectangle;collapsible=0;dropTarget=0;pointerEvents=0;fillColor=none;top=0;left=0;bottom=0;right=0;points=[[0,0.5],[1,0.5]];portConstraint=eastwest;" parent="392" vertex="1"><mxGeometry y="960" width="390" height="30" as="geometry"/></mxCell><mxCell id="487" value="" style="shape=partialRectangle;connectable=0;fillColor=none;top=0;left=0;bottom=0;right=0;editable=1;overflow=hidden;" parent="486" vertex="1"><mxGeometry width="30" height="30" as="geometry"><mxRectangle width="30" height="30" as="alternateBounds"/></mxGeometry></mxCell><mxCell id="488" value="created_at: DATETIME" style="shape=partialRectangle;connectable=0;fillColor=none;top=0;left=0;bottom=0;right=0;align=left;spacingLeft=6;overflow=hidden;" parent="486" vertex="1"><mxGeometry x="30" width="360" height="30" as="geometry"><mxRectangle width="360" height="30" as="alternateBounds"/></mxGeometry></mxCell><mxCell id="489" value="" style="shape=partialRectangle;collapsible=0;dropTarget=0;pointerEvents=0;fillColor=none;top=0;left=0;bottom=0;right=0;points=[[0,0.5],[1,0.5]];portConstraint=eastwest;" parent="392" vertex="1"><mxGeometry y="990" width="390" height="30" as="geometry"/></mxCell><mxCell id="490" value="" style="shape=partialRectangle;connectable=0;fillColor=none;top=0;left=0;bottom=0;right=0;editable=1;overflow=hidden;" parent="489" vertex="1"><mxGeometry width="30" height="30" as="geometry"><mxRectangle width="30" height="30" as="alternateBounds"/></mxGeometry></mxCell><mxCell id="491" value="updated_at: DATETIME" style="shape=partialRectangle;connectable=0;fillColor=none;top=0;left=0;bottom=0;right=0;align=left;spacingLeft=6;overflow=hidden;" parent="489" vertex="1"><mxGeometry x="30" width="360" height="30" as="geometry"><mxRectangle width="360" height="30" as="alternateBounds"/></mxGeometry></mxCell><mxCell id="508" value="" style="shape=partialRectangle;collapsible=0;dropTarget=0;pointerEvents=0;fillColor=none;top=0;left=0;bottom=1;right=0;points=[[0,0.5],[1,0.5]];portConstraint=eastwest;" parent="392" vertex="1"><mxGeometry y="1020" width="390" height="30" as="geometry"/></mxCell><mxCell id="509" value="PK" style="shape=partialRectangle;connectable=0;fillColor=none;top=0;left=0;bottom=0;right=0;fontStyle=1;overflow=hidden;" parent="508" vertex="1"><mxGeometry width="30" height="30" as="geometry"><mxRectangle width="30" height="30" as="alternateBounds"/></mxGeometry></mxCell><mxCell id="510" value="id_pathology: INT AUTO_INCREMENT PRIMARY KEY" style="shape=partialRectangle;connectable=0;fillColor=none;top=0;left=0;bottom=0;right=0;align=left;spacingLeft=6;fontStyle=5;overflow=hidden;" parent="508" vertex="1"><mxGeometry x="30" width="360" height="30" as="geometry"><mxRectangle width="360" height="30" as="alternateBounds"/></mxGeometry></mxCell><mxCell id="512" value="medical_consultation" style="shape=table;startSize=30;container=1;collapsible=1;childLayout=tableLayout;fixedRows=1;rowLines=0;fontStyle=1;align=center;resizeLast=1;fillColor=#e3c800;fontColor=#000000;strokeColor=#B09500;" parent="1" vertex="1"><mxGeometry x="1010" y="160" width="430" height="610" as="geometry"/></mxCell><mxCell id="513" value="" style="shape=partialRectangle;collapsible=0;dropTarget=0;pointerEvents=0;fillColor=none;top=0;left=0;bottom=1;right=0;points=[[0,0.5],[1,0.5]];portConstraint=eastwest;" parent="512" vertex="1"><mxGeometry y="30" width="430" height="30" as="geometry"/></mxCell><mxCell id="514" value="PK" style="shape=partialRectangle;connectable=0;fillColor=#fff2cc;top=0;left=0;bottom=0;right=0;fontStyle=1;overflow=hidden;strokeColor=#d6b656;" parent="513" vertex="1"><mxGeometry width="30" height="30" as="geometry"><mxRectangle width="30" height="30" as="alternateBounds"/></mxGeometry></mxCell><mxCell id="515" value="id_medical_consultation: INT AUTO_INCREMENT PRIMARY KEY" style="shape=partialRectangle;connectable=0;fillColor=#fff2cc;top=0;left=0;bottom=0;right=0;align=left;spacingLeft=6;fontStyle=5;overflow=hidden;strokeColor=#d6b656;" parent="513" vertex="1"><mxGeometry x="30" width="400" height="30" as="geometry"><mxRectangle width="400" height="30" as="alternateBounds"/></mxGeometry></mxCell><mxCell id="516" value="" style="shape=partialRectangle;collapsible=0;dropTarget=0;pointerEvents=0;fillColor=none;top=0;left=0;bottom=0;right=0;points=[[0,0.5],[1,0.5]];portConstraint=eastwest;" parent="512" vertex="1"><mxGeometry y="60" width="430" height="30" as="geometry"/></mxCell><mxCell id="517" value="FK" style="shape=partialRectangle;connectable=0;fillColor=#0050ef;top=0;left=0;bottom=0;right=0;editable=1;overflow=hidden;fontColor=#ffffff;strokeColor=#001DBC;" parent="516" vertex="1"><mxGeometry width="30" height="30" as="geometry"><mxRectangle width="30" height="30" as="alternateBounds"/></mxGeometry></mxCell><mxCell id="518" value="id_patient: INT" style="shape=partialRectangle;connectable=0;fillColor=#0050ef;top=0;left=0;bottom=0;right=0;align=left;spacingLeft=6;overflow=hidden;fontColor=#ffffff;strokeColor=#001DBC;" parent="516" vertex="1"><mxGeometry x="30" width="400" height="30" as="geometry"><mxRectangle width="400" height="30" as="alternateBounds"/></mxGeometry></mxCell><mxCell id="519" value="" style="shape=partialRectangle;collapsible=0;dropTarget=0;pointerEvents=0;fillColor=none;top=0;left=0;bottom=0;right=0;points=[[0,0.5],[1,0.5]];portConstraint=eastwest;" parent="512" vertex="1"><mxGeometry y="90" width="430" height="30" as="geometry"/></mxCell><mxCell id="520" value="FK" style="shape=partialRectangle;connectable=0;fillColor=#e51400;top=0;left=0;bottom=0;right=0;editable=1;overflow=hidden;fontColor=#ffffff;strokeColor=#B20000;" parent="519" vertex="1"><mxGeometry width="30" height="30" as="geometry"><mxRectangle width="30" height="30" as="alternateBounds"/></mxGeometry></mxCell><mxCell id="521" value="id_pathology: INT" style="shape=partialRectangle;connectable=0;fillColor=#e51400;top=0;left=0;bottom=0;right=0;align=left;spacingLeft=6;overflow=hidden;fontColor=#ffffff;strokeColor=#B20000;" parent="519" vertex="1"><mxGeometry x="30" width="400" height="30" as="geometry"><mxRectangle width="400" height="30" as="alternateBounds"/></mxGeometry></mxCell><mxCell id="522" value="" style="shape=partialRectangle;collapsible=0;dropTarget=0;pointerEvents=0;fillColor=none;top=0;left=0;bottom=0;right=0;points=[[0,0.5],[1,0.5]];portConstraint=eastwest;" parent="512" vertex="1"><mxGeometry y="120" width="430" height="30" as="geometry"/></mxCell><mxCell id="523" value="" style="shape=partialRectangle;connectable=0;fillColor=none;top=0;left=0;bottom=0;right=0;editable=1;overflow=hidden;" parent="522" vertex="1"><mxGeometry width="30" height="30" as="geometry"><mxRectangle width="30" height="30" as="alternateBounds"/></mxGeometry></mxCell><mxCell id="524" value="left_foot_professional_observation: VARCHAR(50)" style="shape=partialRectangle;connectable=0;fillColor=none;top=0;left=0;bottom=0;right=0;align=left;spacingLeft=6;overflow=hidden;" parent="522" vertex="1"><mxGeometry x="30" width="400" height="30" as="geometry"><mxRectangle width="400" height="30" as="alternateBounds"/></mxGeometry></mxCell><mxCell id="525" value="" style="shape=partialRectangle;collapsible=0;dropTarget=0;pointerEvents=0;fillColor=none;top=0;left=0;bottom=0;right=0;points=[[0,0.5],[1,0.5]];portConstraint=eastwest;" parent="512" vertex="1"><mxGeometry y="150" width="430" height="30" as="geometry"/></mxCell><mxCell id="526" value="" style="shape=partialRectangle;connectable=0;fillColor=none;top=0;left=0;bottom=0;right=0;editable=1;overflow=hidden;" parent="525" vertex="1"><mxGeometry width="30" height="30" as="geometry"><mxRectangle width="30" height="30" as="alternateBounds"/></mxGeometry></mxCell><mxCell id="527" value="right_foot_professional_observation: VARCHAR(50)" style="shape=partialRectangle;connectable=0;fillColor=none;top=0;left=0;bottom=0;right=0;align=left;spacingLeft=6;overflow=hidden;" parent="525" vertex="1"><mxGeometry x="30" width="400" height="30" as="geometry"><mxRectangle width="400" height="30" as="alternateBounds"/></mxGeometry></mxCell><mxCell id="528" value="" style="shape=partialRectangle;collapsible=0;dropTarget=0;pointerEvents=0;fillColor=none;top=0;left=0;bottom=0;right=0;points=[[0,0.5],[1,0.5]];portConstraint=eastwest;" parent="512" vertex="1"><mxGeometry y="180" width="430" height="30" as="geometry"/></mxCell><mxCell id="529" value="" style="shape=partialRectangle;connectable=0;fillColor=none;top=0;left=0;bottom=0;right=0;editable=1;overflow=hidden;" parent="528" vertex="1"><mxGeometry width="30" height="30" as="geometry"><mxRectangle width="30" height="30" as="alternateBounds"/></mxGeometry></mxCell><mxCell id="530" value="type_pressure_left_foot: VARCHAR(3)" style="shape=partialRectangle;connectable=0;fillColor=none;top=0;left=0;bottom=0;right=0;align=left;spacingLeft=6;overflow=hidden;" parent="528" vertex="1"><mxGeometry x="30" width="400" height="30" as="geometry"><mxRectangle width="400" height="30" as="alternateBounds"/></mxGeometry></mxCell><mxCell id="531" value="" style="shape=partialRectangle;collapsible=0;dropTarget=0;pointerEvents=0;fillColor=none;top=0;left=0;bottom=0;right=0;points=[[0,0.5],[1,0.5]];portConstraint=eastwest;" parent="512" vertex="1"><mxGeometry y="210" width="430" height="30" as="geometry"/></mxCell><mxCell id="532" value="" style="shape=partialRectangle;connectable=0;fillColor=none;top=0;left=0;bottom=0;right=0;editable=1;overflow=hidden;" parent="531" vertex="1"><mxGeometry width="30" height="30" as="geometry"><mxRectangle width="30" height="30" as="alternateBounds"/></mxGeometry></mxCell><mxCell id="533" value="type_pressure_right_foot: VARCHAR(3)" style="shape=partialRectangle;connectable=0;fillColor=none;top=0;left=0;bottom=0;right=0;align=left;spacingLeft=6;overflow=hidden;" parent="531" vertex="1"><mxGeometry x="30" width="400" height="30" as="geometry"><mxRectangle width="400" height="30" as="alternateBounds"/></mxGeometry></mxCell><mxCell id="534" value="" style="shape=partialRectangle;collapsible=0;dropTarget=0;pointerEvents=0;fillColor=none;top=0;left=0;bottom=0;right=0;points=[[0,0.5],[1,0.5]];portConstraint=eastwest;" parent="512" vertex="1"><mxGeometry y="240" width="430" height="30" as="geometry"/></mxCell><mxCell id="535" value="" style="shape=partialRectangle;connectable=0;fillColor=none;top=0;left=0;bottom=0;right=0;editable=1;overflow=hidden;" parent="534" vertex="1"><mxGeometry width="30" height="30" as="geometry"><mxRectangle width="30" height="30" as="alternateBounds"/></mxGeometry></mxCell><mxCell id="536" value="left_foot_mono_filament_test: VARCHAR(150)" style="shape=partialRectangle;connectable=0;fillColor=none;top=0;left=0;bottom=0;right=0;align=left;spacingLeft=6;overflow=hidden;" parent="534" vertex="1"><mxGeometry x="30" width="400" height="30" as="geometry"><mxRectangle width="400" height="30" as="alternateBounds"/></mxGeometry></mxCell><mxCell id="537" value="" style="shape=partialRectangle;collapsible=0;dropTarget=0;pointerEvents=0;fillColor=none;top=0;left=0;bottom=0;right=0;points=[[0,0.5],[1,0.5]];portConstraint=eastwest;" parent="512" vertex="1"><mxGeometry y="270" width="430" height="30" as="geometry"/></mxCell><mxCell id="538" value="" style="shape=partialRectangle;connectable=0;fillColor=none;top=0;left=0;bottom=0;right=0;editable=1;overflow=hidden;" parent="537" vertex="1"><mxGeometry width="30" height="30" as="geometry"><mxRectangle width="30" height="30" as="alternateBounds"/></mxGeometry></mxCell><mxCell id="539" value="right_foot_mono_filament_test: VARCHAR(150)" style="shape=partialRectangle;connectable=0;fillColor=none;top=0;left=0;bottom=0;right=0;align=left;spacingLeft=6;overflow=hidden;" parent="537" vertex="1"><mxGeometry x="30" width="400" height="30" as="geometry"><mxRectangle width="400" height="30" as="alternateBounds"/></mxGeometry></mxCell><mxCell id="540" value="" style="shape=partialRectangle;collapsible=0;dropTarget=0;pointerEvents=0;fillColor=none;top=0;left=0;bottom=0;right=0;points=[[0,0.5],[1,0.5]];portConstraint=eastwest;" parent="512" vertex="1"><mxGeometry y="300" width="430" height="30" as="geometry"/></mxCell><mxCell id="541" value="" style="shape=partialRectangle;connectable=0;fillColor=none;top=0;left=0;bottom=0;right=0;editable=1;overflow=hidden;" parent="540" vertex="1"><mxGeometry width="30" height="30" as="geometry"><mxRectangle width="30" height="30" as="alternateBounds"/></mxGeometry></mxCell><mxCell id="542" value="left_foot_dermatological_pathology: VARCHAR(150)" style="shape=partialRectangle;connectable=0;fillColor=none;top=0;left=0;bottom=0;right=0;align=left;spacingLeft=6;overflow=hidden;" parent="540" vertex="1"><mxGeometry x="30" width="400" height="30" as="geometry"><mxRectangle width="400" height="30" as="alternateBounds"/></mxGeometry></mxCell><mxCell id="543" value="" style="shape=partialRectangle;collapsible=0;dropTarget=0;pointerEvents=0;fillColor=none;top=0;left=0;bottom=0;right=0;points=[[0,0.5],[1,0.5]];portConstraint=eastwest;" parent="512" vertex="1"><mxGeometry y="330" width="430" height="30" as="geometry"/></mxCell><mxCell id="544" value="" style="shape=partialRectangle;connectable=0;fillColor=none;top=0;left=0;bottom=0;right=0;editable=1;overflow=hidden;" parent="543" vertex="1"><mxGeometry width="30" height="30" as="geometry"><mxRectangle width="30" height="30" as="alternateBounds"/></mxGeometry></mxCell><mxCell id="545" value="right_foot_dermatological_pathology: VARCHAR(150)" style="shape=partialRectangle;connectable=0;fillColor=none;top=0;left=0;bottom=0;right=0;align=left;spacingLeft=6;overflow=hidden;" parent="543" vertex="1"><mxGeometry x="30" width="400" height="30" as="geometry"><mxRectangle width="400" height="30" as="alternateBounds"/></mxGeometry></mxCell><mxCell id="546" value="" style="shape=partialRectangle;collapsible=0;dropTarget=0;pointerEvents=0;fillColor=none;top=0;left=0;bottom=0;right=0;points=[[0,0.5],[1,0.5]];portConstraint=eastwest;" parent="512" vertex="1"><mxGeometry y="360" width="430" height="30" as="geometry"/></mxCell><mxCell id="547" value="" style="shape=partialRectangle;connectable=0;fillColor=none;top=0;left=0;bottom=0;right=0;editable=1;overflow=hidden;" parent="546" vertex="1"><mxGeometry width="30" height="30" as="geometry"><mxRectangle width="30" height="30" as="alternateBounds"/></mxGeometry></mxCell><mxCell id="548" value="pathology_present_in_nail_left_foot: VARCHAR(150)" style="shape=partialRectangle;connectable=0;fillColor=none;top=0;left=0;bottom=0;right=0;align=left;spacingLeft=6;overflow=hidden;" parent="546" vertex="1"><mxGeometry x="30" width="400" height="30" as="geometry"><mxRectangle width="400" height="30" as="alternateBounds"/></mxGeometry></mxCell><mxCell id="549" value="" style="shape=partialRectangle;collapsible=0;dropTarget=0;pointerEvents=0;fillColor=none;top=0;left=0;bottom=0;right=0;points=[[0,0.5],[1,0.5]];portConstraint=eastwest;" parent="512" vertex="1"><mxGeometry y="390" width="430" height="30" as="geometry"/></mxCell><mxCell id="550" value="" style="shape=partialRectangle;connectable=0;fillColor=none;top=0;left=0;bottom=0;right=0;editable=1;overflow=hidden;" parent="549" vertex="1"><mxGeometry width="30" height="30" as="geometry"><mxRectangle width="30" height="30" as="alternateBounds"/></mxGeometry></mxCell><mxCell id="551" value="pathology_present_in_nail_right_foot: VARCHAR(150)" style="shape=partialRectangle;connectable=0;fillColor=none;top=0;left=0;bottom=0;right=0;align=left;spacingLeft=6;overflow=hidden;" parent="549" vertex="1"><mxGeometry x="30" width="400" height="30" as="geometry"><mxRectangle width="400" height="30" as="alternateBounds"/></mxGeometry></mxCell><mxCell id="552" value="" style="shape=partialRectangle;collapsible=0;dropTarget=0;pointerEvents=0;fillColor=none;top=0;left=0;bottom=0;right=0;points=[[0,0.5],[1,0.5]];portConstraint=eastwest;" parent="512" vertex="1"><mxGeometry y="420" width="430" height="30" as="geometry"/></mxCell><mxCell id="553" value="" style="shape=partialRectangle;connectable=0;fillColor=none;top=0;left=0;bottom=0;right=0;editable=1;overflow=hidden;" parent="552" vertex="1"><mxGeometry width="30" height="30" as="geometry"><mxRectangle width="30" height="30" as="alternateBounds"/></mxGeometry></mxCell><mxCell id="554" value="performed_procedure: TEXT" style="shape=partialRectangle;connectable=0;fillColor=none;top=0;left=0;bottom=0;right=0;align=left;spacingLeft=6;overflow=hidden;" parent="552" vertex="1"><mxGeometry x="30" width="400" height="30" as="geometry"><mxRectangle width="400" height="30" as="alternateBounds"/></mxGeometry></mxCell><mxCell id="555" value="" style="shape=partialRectangle;collapsible=0;dropTarget=0;pointerEvents=0;fillColor=none;top=0;left=0;bottom=0;right=0;points=[[0,0.5],[1,0.5]];portConstraint=eastwest;" parent="512" vertex="1"><mxGeometry y="450" width="430" height="30" as="geometry"/></mxCell><mxCell id="556" value="" style="shape=partialRectangle;connectable=0;fillColor=none;top=0;left=0;bottom=0;right=0;editable=1;overflow=hidden;" parent="555" vertex="1"><mxGeometry width="30" height="30" as="geometry"><mxRectangle width="30" height="30" as="alternateBounds"/></mxGeometry></mxCell><mxCell id="557" value="date_of_scheduling: DATETIME" style="shape=partialRectangle;connectable=0;fillColor=none;top=0;left=0;bottom=0;right=0;align=left;spacingLeft=6;overflow=hidden;" parent="555" vertex="1"><mxGeometry x="30" width="400" height="30" as="geometry"><mxRectangle width="400" height="30" as="alternateBounds"/></mxGeometry></mxCell><mxCell id="558" value="" style="shape=partialRectangle;collapsible=0;dropTarget=0;pointerEvents=0;fillColor=none;top=0;left=0;bottom=0;right=0;points=[[0,0.5],[1,0.5]];portConstraint=eastwest;" parent="512" vertex="1"><mxGeometry y="480" width="430" height="30" as="geometry"/></mxCell><mxCell id="559" value="" style="shape=partialRectangle;connectable=0;fillColor=none;top=0;left=0;bottom=0;right=0;editable=1;overflow=hidden;" parent="558" vertex="1"><mxGeometry width="30" height="30" as="geometry"><mxRectangle width="30" height="30" as="alternateBounds"/></mxGeometry></mxCell><mxCell id="560" value="consultation_completed: BOOLEAN" style="shape=partialRectangle;connectable=0;fillColor=none;top=0;left=0;bottom=0;right=0;align=left;spacingLeft=6;overflow=hidden;" parent="558" vertex="1"><mxGeometry x="30" width="400" height="30" as="geometry"><mxRectangle width="400" height="30" as="alternateBounds"/></mxGeometry></mxCell><mxCell id="561" value="" style="shape=partialRectangle;collapsible=0;dropTarget=0;pointerEvents=0;fillColor=none;top=0;left=0;bottom=0;right=0;points=[[0,0.5],[1,0.5]];portConstraint=eastwest;" parent="512" vertex="1"><mxGeometry y="510" width="430" height="30" as="geometry"/></mxCell><mxCell id="562" value="" style="shape=partialRectangle;connectable=0;fillColor=none;top=0;left=0;bottom=0;right=0;editable=1;overflow=hidden;" parent="561" vertex="1"><mxGeometry width="30" height="30" as="geometry"><mxRectangle width="30" height="30" as="alternateBounds"/></mxGeometry></mxCell><mxCell id="563" value="date_consultation_completed: DATETIME" style="shape=partialRectangle;connectable=0;fillColor=none;top=0;left=0;bottom=0;right=0;align=left;spacingLeft=6;overflow=hidden;" parent="561" vertex="1"><mxGeometry x="30" width="400" height="30" as="geometry"><mxRectangle width="400" height="30" as="alternateBounds"/></mxGeometry></mxCell><mxCell id="564" value="" style="shape=partialRectangle;collapsible=0;dropTarget=0;pointerEvents=0;fillColor=none;top=0;left=0;bottom=0;right=0;points=[[0,0.5],[1,0.5]];portConstraint=eastwest;" parent="512" vertex="1"><mxGeometry y="540" width="430" height="30" as="geometry"/></mxCell><mxCell id="565" value="" style="shape=partialRectangle;connectable=0;fillColor=none;top=0;left=0;bottom=0;right=0;editable=1;overflow=hidden;" parent="564" vertex="1"><mxGeometry width="30" height="30" as="geometry"><mxRectangle width="30" height="30" as="alternateBounds"/></mxGeometry></mxCell><mxCell id="566" value="date_unchecked: DATETIME" style="shape=partialRectangle;connectable=0;fillColor=none;top=0;left=0;bottom=0;right=0;align=left;spacingLeft=6;overflow=hidden;" parent="564" vertex="1"><mxGeometry x="30" width="400" height="30" as="geometry"><mxRectangle width="400" height="30" as="alternateBounds"/></mxGeometry></mxCell><mxCell id="567" value="" style="shape=partialRectangle;collapsible=0;dropTarget=0;pointerEvents=0;fillColor=none;top=0;left=0;bottom=0;right=0;points=[[0,0.5],[1,0.5]];portConstraint=eastwest;" parent="512" vertex="1"><mxGeometry y="570" width="430" height="30" as="geometry"/></mxCell><mxCell id="568" value="" style="shape=partialRectangle;connectable=0;fillColor=none;top=0;left=0;bottom=0;right=0;editable=1;overflow=hidden;" parent="567" vertex="1"><mxGeometry width="30" height="30" as="geometry"><mxRectangle width="30" height="30" as="alternateBounds"/></mxGeometry></mxCell><mxCell id="569" value="consultation_unchecked: BOOLEAN" style="shape=partialRectangle;connectable=0;fillColor=none;top=0;left=0;bottom=0;right=0;align=left;spacingLeft=6;overflow=hidden;" parent="567" vertex="1"><mxGeometry x="30" width="400" height="30" as="geometry"><mxRectangle width="400" height="30" as="alternateBounds"/></mxGeometry></mxCell><mxCell id="570" style="edgeStyle=orthogonalEdgeStyle;rounded=0;orthogonalLoop=1;jettySize=auto;html=1;fillColor=#0050ef;strokeColor=#001DBC;strokeWidth=2;" edge="1" parent="1" source="272" target="396"><mxGeometry relative="1" as="geometry"/></mxCell><mxCell id="571" style="edgeStyle=orthogonalEdgeStyle;rounded=0;orthogonalLoop=1;jettySize=auto;html=1;entryX=0;entryY=0.5;entryDx=0;entryDy=0;strokeWidth=2;fillColor=#0050ef;strokeColor=#001DBC;" edge="1" parent="1" source="272" target="516"><mxGeometry relative="1" as="geometry"><Array as="points"><mxPoint x="430" y="205"/><mxPoint x="430" y="110"/><mxPoint x="970" y="110"/><mxPoint x="970" y="235"/></Array></mxGeometry></mxCell><mxCell id="572" style="edgeStyle=orthogonalEdgeStyle;rounded=0;orthogonalLoop=1;jettySize=auto;html=1;strokeWidth=2;fillColor=#e51400;strokeColor=#B20000;" edge="1" parent="1" source="393" target="519"><mxGeometry relative="1" as="geometry"/></mxCell></root></mxGraphModel></diagram></mxfile>